<svg xmlns="http://www.w3.org/2000/svg" viewBox="0 0 32 32">
  <!-- Pokeball half (left) -->
  <path d="M16 2 A14 14 0 0 0 2 16 L14 16 A3 3 0 0 1 16 13 A3 3 0 0 1 18 16 L30 16 A14 14 0 0 0 16 2Z" fill="#EE1515"/>
  <!-- Bottom half (white) -->
  <path d="M2 16 A14 14 0 0 0 16 30 A14 14 0 0 0 30 16 L18 16 A3 3 0 0 1 16 19 A3 3 0 0 1 14 16Z" fill="#fff"/>
  <!-- Center line -->
  <rect x="2" y="14.5" width="28" height="3" fill="#222"/>
  <!-- Center circle -->
  <circle cx="16" cy="16" r="4" fill="#fff" stroke="#222" stroke-width="2"/>
  <circle cx="16" cy="16" r="1.5" fill="#222"/>
  <!-- Straw hat on top -->
  <ellipse cx="16" cy="5" rx="8" ry="2.5" fill="#f59e0b" stroke="#222" stroke-width="1"/>
  <path d="M10 5 Q10 1 16 0 Q22 1 22 5" fill="#f59e0b" stroke="#222" stroke-width="1"/>
  <rect x="10" y="4" width="12" height="1.5" fill="#c2410c" rx="0.5"/>
  <!-- Outline -->
  <circle cx="16" cy="16" r="14" fill="none" stroke="#222" stroke-width="2"/>
</svg>
